<mxfile host="Electron" agent="Mozilla/5.0 (X11; Linux x86_64) AppleWebKit/537.36 (KHTML, like Gecko) draw.io/26.0.4 Chrome/128.0.6613.186 Electron/32.2.5 Safari/537.36" version="26.0.4" pages="4">
  <diagram id="VJ8mbkAg7pqKaVwBzHYy" name="tag">
    <mxGraphModel dx="2074" dy="1195" grid="1" gridSize="10" guides="1" tooltips="1" connect="1" arrows="1" fold="1" page="1" pageScale="1" pageWidth="1600" pageHeight="900" math="0" shadow="0">
      <root>
        <mxCell id="0" />
        <mxCell id="1" parent="0" />
        <mxCell id="Yw1D7t0iDwuo7ie6NWiw-2" value="c0" style="ellipse;whiteSpace=wrap;html=1;aspect=fixed;fillColor=#dae8fc;strokeColor=#6c8ebf;strokeWidth=3;fontSize=30;fontFamily=Source Sans Pro;fontSource=https%3A%2F%2Ffonts.googleapis.com%2Fcss%3Ffamily%3DSource%2BSans%2BPro;fontColor=#808080;" parent="1" vertex="1">
          <mxGeometry x="760" y="720" width="80" height="80" as="geometry" />
        </mxCell>
        <mxCell id="Yw1D7t0iDwuo7ie6NWiw-3" style="edgeStyle=orthogonalEdgeStyle;curved=1;orthogonalLoop=1;jettySize=auto;html=1;exitX=0.5;exitY=1;exitDx=0;exitDy=0;entryX=0.5;entryY=0;entryDx=0;entryDy=0;strokeColor=#999999;strokeWidth=5;fontFamily=Source Sans Pro;fontSource=https%3A%2F%2Ffonts.googleapis.com%2Fcss%3Ffamily%3DSource%2BSans%2BPro;fontSize=50;endArrow=none;endFill=0;" parent="1" source="Yw1D7t0iDwuo7ie6NWiw-4" target="Yw1D7t0iDwuo7ie6NWiw-2" edge="1">
          <mxGeometry relative="1" as="geometry" />
        </mxCell>
        <mxCell id="Yw1D7t0iDwuo7ie6NWiw-4" value="&lt;span style=&quot;color: rgb(128, 128, 128); font-family: &amp;quot;Source Sans Pro&amp;quot;; font-size: 30px;&quot;&gt;c1&lt;/span&gt;" style="ellipse;whiteSpace=wrap;html=1;aspect=fixed;fillColor=#dae8fc;strokeColor=#6c8ebf;strokeWidth=3;fontSize=12;fontFamily=Helvetica;fontSource=https%3A%2F%2Ffonts.googleapis.com%2Fcss%3Ffamily%3DSource%2BSans%2BPro;" parent="1" vertex="1">
          <mxGeometry x="760" y="590" width="80" height="80" as="geometry" />
        </mxCell>
        <mxCell id="Yw1D7t0iDwuo7ie6NWiw-5" style="edgeStyle=orthogonalEdgeStyle;curved=1;orthogonalLoop=1;jettySize=auto;html=1;exitX=0.5;exitY=1;exitDx=0;exitDy=0;entryX=0.5;entryY=0;entryDx=0;entryDy=0;strokeColor=#999999;strokeWidth=5;fontFamily=Source Sans Pro;fontSource=https%3A%2F%2Ffonts.googleapis.com%2Fcss%3Ffamily%3DSource%2BSans%2BPro;fontSize=50;endArrow=none;endFill=0;" parent="1" source="Yw1D7t0iDwuo7ie6NWiw-6" target="Yw1D7t0iDwuo7ie6NWiw-4" edge="1">
          <mxGeometry relative="1" as="geometry" />
        </mxCell>
        <mxCell id="Yw1D7t0iDwuo7ie6NWiw-6" value="&lt;span style=&quot;color: rgb(128, 128, 128); font-family: &amp;quot;Source Sans Pro&amp;quot;; font-size: 30px;&quot;&gt;c2&lt;/span&gt;" style="ellipse;whiteSpace=wrap;html=1;aspect=fixed;fillColor=#dae8fc;strokeColor=#6c8ebf;strokeWidth=3;" parent="1" vertex="1">
          <mxGeometry x="760" y="460" width="80" height="80" as="geometry" />
        </mxCell>
        <mxCell id="Yw1D7t0iDwuo7ie6NWiw-9" style="edgeStyle=orthogonalEdgeStyle;orthogonalLoop=1;jettySize=auto;html=1;entryX=0;entryY=0.5;entryDx=0;entryDy=0;fontFamily=Source Sans Pro;fontSource=https%3A%2F%2Ffonts.googleapis.com%2Fcss%3Ffamily%3DSource%2BSans%2BPro;fontSize=30;fontColor=#EA6B66;curved=1;strokeWidth=5;fillColor=#f8cecc;strokeColor=#EA6B66;" parent="1" source="Yw1D7t0iDwuo7ie6NWiw-7" target="Yw1D7t0iDwuo7ie6NWiw-4" edge="1">
          <mxGeometry relative="1" as="geometry" />
        </mxCell>
        <mxCell id="Yw1D7t0iDwuo7ie6NWiw-7" value="tag:&amp;nbsp; &amp;nbsp; &amp;nbsp;&lt;font color=&quot;#ea6b66&quot;&gt;&lt;b&gt;v0.1.0&lt;/b&gt;&lt;/font&gt;" style="text;html=1;strokeColor=none;fillColor=none;align=center;verticalAlign=middle;whiteSpace=wrap;rounded=0;fontFamily=Source Sans Pro;fontSource=https%3A%2F%2Ffonts.googleapis.com%2Fcss%3Ffamily%3DSource%2BSans%2BPro;fontSize=30;strokeWidth=6;" parent="1" vertex="1">
          <mxGeometry x="440" y="615" width="160" height="30" as="geometry" />
        </mxCell>
      </root>
    </mxGraphModel>
  </diagram>
  <diagram name="branch" id="28jHdLzN4Etuh3obPcYT">
    <mxGraphModel dx="2074" dy="1195" grid="1" gridSize="10" guides="1" tooltips="1" connect="1" arrows="1" fold="1" page="1" pageScale="1" pageWidth="1600" pageHeight="900" math="0" shadow="0">
      <root>
        <mxCell id="MlW6plCIttDGI8GbIBrr-0" />
        <mxCell id="MlW6plCIttDGI8GbIBrr-1" parent="MlW6plCIttDGI8GbIBrr-0" />
        <mxCell id="MlW6plCIttDGI8GbIBrr-2" value="c0" style="ellipse;whiteSpace=wrap;html=1;aspect=fixed;fillColor=#dae8fc;strokeColor=#6c8ebf;strokeWidth=3;fontSize=30;fontFamily=Source Sans Pro;fontSource=https%3A%2F%2Ffonts.googleapis.com%2Fcss%3Ffamily%3DSource%2BSans%2BPro;fontColor=#808080;" parent="MlW6plCIttDGI8GbIBrr-1" vertex="1">
          <mxGeometry x="760" y="720" width="80" height="80" as="geometry" />
        </mxCell>
        <mxCell id="MlW6plCIttDGI8GbIBrr-3" style="edgeStyle=orthogonalEdgeStyle;curved=1;orthogonalLoop=1;jettySize=auto;html=1;exitX=0.5;exitY=1;exitDx=0;exitDy=0;entryX=0.5;entryY=0;entryDx=0;entryDy=0;strokeColor=#999999;strokeWidth=5;fontFamily=Source Sans Pro;fontSource=https%3A%2F%2Ffonts.googleapis.com%2Fcss%3Ffamily%3DSource%2BSans%2BPro;fontSize=50;endArrow=none;endFill=0;" parent="MlW6plCIttDGI8GbIBrr-1" source="MlW6plCIttDGI8GbIBrr-4" target="MlW6plCIttDGI8GbIBrr-2" edge="1">
          <mxGeometry relative="1" as="geometry" />
        </mxCell>
        <mxCell id="MlW6plCIttDGI8GbIBrr-4" value="&lt;span style=&quot;color: rgb(128, 128, 128); font-family: &amp;quot;Source Sans Pro&amp;quot;; font-size: 30px;&quot;&gt;c1&lt;/span&gt;" style="ellipse;whiteSpace=wrap;html=1;aspect=fixed;fillColor=#dae8fc;strokeColor=#6c8ebf;strokeWidth=3;fontSize=12;fontFamily=Helvetica;fontSource=https%3A%2F%2Ffonts.googleapis.com%2Fcss%3Ffamily%3DSource%2BSans%2BPro;" parent="MlW6plCIttDGI8GbIBrr-1" vertex="1">
          <mxGeometry x="760" y="590" width="80" height="80" as="geometry" />
        </mxCell>
        <mxCell id="MlW6plCIttDGI8GbIBrr-5" style="edgeStyle=orthogonalEdgeStyle;curved=1;orthogonalLoop=1;jettySize=auto;html=1;exitX=0.5;exitY=1;exitDx=0;exitDy=0;entryX=0.5;entryY=0;entryDx=0;entryDy=0;strokeColor=#999999;strokeWidth=5;fontFamily=Source Sans Pro;fontSource=https%3A%2F%2Ffonts.googleapis.com%2Fcss%3Ffamily%3DSource%2BSans%2BPro;fontSize=50;endArrow=none;endFill=0;" parent="MlW6plCIttDGI8GbIBrr-1" source="MlW6plCIttDGI8GbIBrr-6" target="MlW6plCIttDGI8GbIBrr-4" edge="1">
          <mxGeometry relative="1" as="geometry" />
        </mxCell>
        <mxCell id="MlW6plCIttDGI8GbIBrr-6" value="&lt;span style=&quot;color: rgb(128, 128, 128); font-family: &amp;quot;Source Sans Pro&amp;quot;; font-size: 30px;&quot;&gt;c2&lt;/span&gt;" style="ellipse;whiteSpace=wrap;html=1;aspect=fixed;fillColor=#dae8fc;strokeColor=#6c8ebf;strokeWidth=3;" parent="MlW6plCIttDGI8GbIBrr-1" vertex="1">
          <mxGeometry x="760" y="460" width="80" height="80" as="geometry" />
        </mxCell>
        <mxCell id="MlW6plCIttDGI8GbIBrr-7" style="edgeStyle=orthogonalEdgeStyle;curved=1;orthogonalLoop=1;jettySize=auto;html=1;entryX=0;entryY=0.5;entryDx=0;entryDy=0;strokeColor=#9673A6;strokeWidth=5;fontFamily=Source Sans Pro;fontSource=https%3A%2F%2Ffonts.googleapis.com%2Fcss%3Ffamily%3DSource%2BSans%2BPro;fontSize=30;fontColor=#9673A6;" parent="MlW6plCIttDGI8GbIBrr-1" source="MlW6plCIttDGI8GbIBrr-8" edge="1">
          <mxGeometry relative="1" as="geometry">
            <mxPoint x="760" y="500" as="targetPoint" />
          </mxGeometry>
        </mxCell>
        <mxCell id="MlW6plCIttDGI8GbIBrr-8" value="&lt;span style=&quot;font-weight: normal;&quot;&gt;&lt;font color=&quot;#000000&quot;&gt;branch:&lt;/font&gt; &lt;/span&gt;main" style="text;html=1;strokeColor=none;fillColor=none;align=center;verticalAlign=middle;whiteSpace=wrap;rounded=0;strokeWidth=6;fontFamily=Source Sans Pro;fontSource=https%3A%2F%2Ffonts.googleapis.com%2Fcss%3Ffamily%3DSource%2BSans%2BPro;fontSize=30;fontColor=#9673A6;fontStyle=1" parent="MlW6plCIttDGI8GbIBrr-1" vertex="1">
          <mxGeometry x="420" y="485" width="190" height="30" as="geometry" />
        </mxCell>
        <mxCell id="MlW6plCIttDGI8GbIBrr-9" style="edgeStyle=orthogonalEdgeStyle;curved=1;orthogonalLoop=1;jettySize=auto;html=1;exitX=0.5;exitY=1;exitDx=0;exitDy=0;entryX=0.5;entryY=0;entryDx=0;entryDy=0;strokeColor=#999999;strokeWidth=5;fontFamily=Source Sans Pro;fontSource=https%3A%2F%2Ffonts.googleapis.com%2Fcss%3Ffamily%3DSource%2BSans%2BPro;fontSize=30;fontColor=#000000;endArrow=none;endFill=0;" parent="MlW6plCIttDGI8GbIBrr-1" source="MlW6plCIttDGI8GbIBrr-10" target="MlW6plCIttDGI8GbIBrr-6" edge="1">
          <mxGeometry relative="1" as="geometry" />
        </mxCell>
        <mxCell id="MlW6plCIttDGI8GbIBrr-10" value="&lt;span style=&quot;color: rgb(128, 128, 128); font-family: &amp;quot;Source Sans Pro&amp;quot;; font-size: 30px;&quot;&gt;c3&lt;/span&gt;" style="ellipse;whiteSpace=wrap;html=1;aspect=fixed;fillColor=#dae8fc;strokeColor=#6c8ebf;strokeWidth=3;" parent="MlW6plCIttDGI8GbIBrr-1" vertex="1">
          <mxGeometry x="880" y="300" width="80" height="80" as="geometry" />
        </mxCell>
        <mxCell id="MlW6plCIttDGI8GbIBrr-11" style="edgeStyle=orthogonalEdgeStyle;curved=1;orthogonalLoop=1;jettySize=auto;html=1;exitX=0;exitY=0.5;exitDx=0;exitDy=0;entryX=1;entryY=0.5;entryDx=0;entryDy=0;strokeColor=#D6B656;strokeWidth=5;fontFamily=Source Sans Pro;fontSource=https%3A%2F%2Ffonts.googleapis.com%2Fcss%3Ffamily%3DSource%2BSans%2BPro;fontSize=30;fontColor=#000000;fillColor=#fff2cc;" parent="MlW6plCIttDGI8GbIBrr-1" source="MlW6plCIttDGI8GbIBrr-12" edge="1">
          <mxGeometry relative="1" as="geometry">
            <mxPoint x="960" y="340" as="targetPoint" />
          </mxGeometry>
        </mxCell>
        <mxCell id="MlW6plCIttDGI8GbIBrr-12" value="&lt;font style=&quot;font-weight: normal;&quot; color=&quot;#000000&quot;&gt;branch:&lt;/font&gt;&amp;nbsp;&lt;font color=&quot;#d6b656&quot;&gt;my-branch&lt;/font&gt;" style="text;html=1;strokeColor=none;fillColor=none;align=center;verticalAlign=middle;whiteSpace=wrap;rounded=0;strokeWidth=6;fontFamily=Source Sans Pro;fontSource=https%3A%2F%2Ffonts.googleapis.com%2Fcss%3Ffamily%3DSource%2BSans%2BPro;fontSize=30;fontColor=#9673A6;fontStyle=1" parent="MlW6plCIttDGI8GbIBrr-1" vertex="1">
          <mxGeometry x="1070" y="325" width="250" height="30" as="geometry" />
        </mxCell>
        <mxCell id="MlW6plCIttDGI8GbIBrr-17" style="edgeStyle=orthogonalEdgeStyle;orthogonalLoop=1;jettySize=auto;html=1;entryX=0;entryY=0.5;entryDx=0;entryDy=0;fontFamily=Source Sans Pro;fontSource=https%3A%2F%2Ffonts.googleapis.com%2Fcss%3Ffamily%3DSource%2BSans%2BPro;fontSize=30;fontColor=#EA6B66;curved=1;strokeWidth=5;fillColor=#f8cecc;strokeColor=#EA6B66;" parent="MlW6plCIttDGI8GbIBrr-1" source="MlW6plCIttDGI8GbIBrr-18" edge="1">
          <mxGeometry relative="1" as="geometry">
            <mxPoint x="760" y="630" as="targetPoint" />
          </mxGeometry>
        </mxCell>
        <mxCell id="MlW6plCIttDGI8GbIBrr-18" value="tag:&amp;nbsp; &amp;nbsp; &amp;nbsp;&lt;font color=&quot;#ea6b66&quot;&gt;&lt;b&gt;v0.1.0&lt;/b&gt;&lt;/font&gt;" style="text;html=1;strokeColor=none;fillColor=none;align=center;verticalAlign=middle;whiteSpace=wrap;rounded=0;fontFamily=Source Sans Pro;fontSource=https%3A%2F%2Ffonts.googleapis.com%2Fcss%3Ffamily%3DSource%2BSans%2BPro;fontSize=30;strokeWidth=6;" parent="MlW6plCIttDGI8GbIBrr-1" vertex="1">
          <mxGeometry x="440" y="615" width="160" height="30" as="geometry" />
        </mxCell>
      </root>
    </mxGraphModel>
  </diagram>
  <diagram id="IDuGJnbYRLqVkAVsbKo-" name="branch-2">
    <mxGraphModel dx="2074" dy="1195" grid="1" gridSize="10" guides="1" tooltips="1" connect="1" arrows="1" fold="1" page="1" pageScale="1" pageWidth="1600" pageHeight="900" math="0" shadow="0">
      <root>
        <mxCell id="0" />
        <mxCell id="1" parent="0" />
        <mxCell id="Lku-9D8-o2nRtP-Uuvem-1" value="c0" style="ellipse;whiteSpace=wrap;html=1;aspect=fixed;fillColor=#dae8fc;strokeColor=#6c8ebf;strokeWidth=3;fontSize=30;fontFamily=Source Sans Pro;fontSource=https%3A%2F%2Ffonts.googleapis.com%2Fcss%3Ffamily%3DSource%2BSans%2BPro;fontColor=#808080;" parent="1" vertex="1">
          <mxGeometry x="760" y="720" width="80" height="80" as="geometry" />
        </mxCell>
        <mxCell id="Lku-9D8-o2nRtP-Uuvem-2" style="edgeStyle=orthogonalEdgeStyle;curved=1;orthogonalLoop=1;jettySize=auto;html=1;exitX=0.5;exitY=1;exitDx=0;exitDy=0;entryX=0.5;entryY=0;entryDx=0;entryDy=0;strokeColor=#999999;strokeWidth=5;fontFamily=Source Sans Pro;fontSource=https%3A%2F%2Ffonts.googleapis.com%2Fcss%3Ffamily%3DSource%2BSans%2BPro;fontSize=50;endArrow=none;endFill=0;" parent="1" source="Lku-9D8-o2nRtP-Uuvem-3" target="Lku-9D8-o2nRtP-Uuvem-1" edge="1">
          <mxGeometry relative="1" as="geometry" />
        </mxCell>
        <mxCell id="Lku-9D8-o2nRtP-Uuvem-3" value="&lt;span style=&quot;color: rgb(128, 128, 128); font-family: &amp;quot;Source Sans Pro&amp;quot;; font-size: 30px;&quot;&gt;c1&lt;/span&gt;" style="ellipse;whiteSpace=wrap;html=1;aspect=fixed;fillColor=#dae8fc;strokeColor=#6c8ebf;strokeWidth=3;fontSize=12;fontFamily=Helvetica;fontSource=https%3A%2F%2Ffonts.googleapis.com%2Fcss%3Ffamily%3DSource%2BSans%2BPro;" parent="1" vertex="1">
          <mxGeometry x="760" y="590" width="80" height="80" as="geometry" />
        </mxCell>
        <mxCell id="Lku-9D8-o2nRtP-Uuvem-4" style="edgeStyle=orthogonalEdgeStyle;curved=1;orthogonalLoop=1;jettySize=auto;html=1;exitX=0.5;exitY=1;exitDx=0;exitDy=0;entryX=0.5;entryY=0;entryDx=0;entryDy=0;strokeColor=#999999;strokeWidth=5;fontFamily=Source Sans Pro;fontSource=https%3A%2F%2Ffonts.googleapis.com%2Fcss%3Ffamily%3DSource%2BSans%2BPro;fontSize=50;endArrow=none;endFill=0;" parent="1" source="Lku-9D8-o2nRtP-Uuvem-5" target="Lku-9D8-o2nRtP-Uuvem-3" edge="1">
          <mxGeometry relative="1" as="geometry" />
        </mxCell>
        <mxCell id="Lku-9D8-o2nRtP-Uuvem-5" value="&lt;span style=&quot;color: rgb(128, 128, 128); font-family: &amp;quot;Source Sans Pro&amp;quot;; font-size: 30px;&quot;&gt;c2&lt;/span&gt;" style="ellipse;whiteSpace=wrap;html=1;aspect=fixed;fillColor=#dae8fc;strokeColor=#6c8ebf;strokeWidth=3;" parent="1" vertex="1">
          <mxGeometry x="760" y="460" width="80" height="80" as="geometry" />
        </mxCell>
        <mxCell id="Lku-9D8-o2nRtP-Uuvem-6" style="edgeStyle=orthogonalEdgeStyle;curved=1;orthogonalLoop=1;jettySize=auto;html=1;entryX=0;entryY=0.5;entryDx=0;entryDy=0;strokeColor=#9673A6;strokeWidth=5;fontFamily=Source Sans Pro;fontSource=https%3A%2F%2Ffonts.googleapis.com%2Fcss%3Ffamily%3DSource%2BSans%2BPro;fontSize=30;fontColor=#9673A6;" parent="1" source="Lku-9D8-o2nRtP-Uuvem-7" target="Lku-9D8-o2nRtP-Uuvem-12" edge="1">
          <mxGeometry relative="1" as="geometry" />
        </mxCell>
        <mxCell id="Lku-9D8-o2nRtP-Uuvem-7" value="&lt;span style=&quot;font-weight: normal;&quot;&gt;&lt;font color=&quot;#000000&quot;&gt;branch:&lt;/font&gt; &lt;/span&gt;main" style="text;html=1;strokeColor=none;fillColor=none;align=center;verticalAlign=middle;whiteSpace=wrap;rounded=0;strokeWidth=6;fontFamily=Source Sans Pro;fontSource=https%3A%2F%2Ffonts.googleapis.com%2Fcss%3Ffamily%3DSource%2BSans%2BPro;fontSize=30;fontColor=#9673A6;fontStyle=1" parent="1" vertex="1">
          <mxGeometry x="420" y="325" width="190" height="30" as="geometry" />
        </mxCell>
        <mxCell id="Lku-9D8-o2nRtP-Uuvem-8" style="edgeStyle=orthogonalEdgeStyle;curved=1;orthogonalLoop=1;jettySize=auto;html=1;exitX=0.5;exitY=1;exitDx=0;exitDy=0;entryX=0.5;entryY=0;entryDx=0;entryDy=0;strokeColor=#999999;strokeWidth=5;fontFamily=Source Sans Pro;fontSource=https%3A%2F%2Ffonts.googleapis.com%2Fcss%3Ffamily%3DSource%2BSans%2BPro;fontSize=30;fontColor=#000000;endArrow=none;endFill=0;" parent="1" source="Lku-9D8-o2nRtP-Uuvem-9" target="Lku-9D8-o2nRtP-Uuvem-5" edge="1">
          <mxGeometry relative="1" as="geometry" />
        </mxCell>
        <mxCell id="Lku-9D8-o2nRtP-Uuvem-9" value="&lt;span style=&quot;color: rgb(128, 128, 128); font-family: &amp;quot;Source Sans Pro&amp;quot;; font-size: 30px;&quot;&gt;c3&lt;/span&gt;" style="ellipse;whiteSpace=wrap;html=1;aspect=fixed;fillColor=#dae8fc;strokeColor=#6c8ebf;strokeWidth=3;" parent="1" vertex="1">
          <mxGeometry x="880" y="300" width="80" height="80" as="geometry" />
        </mxCell>
        <mxCell id="Lku-9D8-o2nRtP-Uuvem-10" style="edgeStyle=orthogonalEdgeStyle;curved=1;orthogonalLoop=1;jettySize=auto;html=1;exitX=0;exitY=0.5;exitDx=0;exitDy=0;entryX=1;entryY=0.5;entryDx=0;entryDy=0;strokeColor=#D6B656;strokeWidth=5;fontFamily=Source Sans Pro;fontSource=https%3A%2F%2Ffonts.googleapis.com%2Fcss%3Ffamily%3DSource%2BSans%2BPro;fontSize=30;fontColor=#000000;fillColor=#fff2cc;" parent="1" source="Lku-9D8-o2nRtP-Uuvem-11" target="Lku-9D8-o2nRtP-Uuvem-14" edge="1">
          <mxGeometry relative="1" as="geometry" />
        </mxCell>
        <mxCell id="Lku-9D8-o2nRtP-Uuvem-11" value="&lt;font style=&quot;font-weight: normal;&quot; color=&quot;#000000&quot;&gt;branch:&lt;/font&gt;&amp;nbsp;&lt;font color=&quot;#d6b656&quot;&gt;my-branch&lt;/font&gt;" style="text;html=1;strokeColor=none;fillColor=none;align=center;verticalAlign=middle;whiteSpace=wrap;rounded=0;strokeWidth=6;fontFamily=Source Sans Pro;fontSource=https%3A%2F%2Ffonts.googleapis.com%2Fcss%3Ffamily%3DSource%2BSans%2BPro;fontSize=30;fontColor=#9673A6;fontStyle=1" parent="1" vertex="1">
          <mxGeometry x="1070" y="195" width="250" height="30" as="geometry" />
        </mxCell>
        <mxCell id="Lku-9D8-o2nRtP-Uuvem-13" style="edgeStyle=orthogonalEdgeStyle;curved=1;orthogonalLoop=1;jettySize=auto;html=1;exitX=0.5;exitY=1;exitDx=0;exitDy=0;strokeColor=#999999;strokeWidth=5;fontFamily=Source Sans Pro;fontSource=https%3A%2F%2Ffonts.googleapis.com%2Fcss%3Ffamily%3DSource%2BSans%2BPro;fontSize=30;fontColor=#D6B656;endArrow=none;endFill=0;" parent="1" source="Lku-9D8-o2nRtP-Uuvem-12" target="Lku-9D8-o2nRtP-Uuvem-5" edge="1">
          <mxGeometry relative="1" as="geometry" />
        </mxCell>
        <mxCell id="Lku-9D8-o2nRtP-Uuvem-12" value="&lt;span style=&quot;color: rgb(128, 128, 128); font-family: &amp;quot;Source Sans Pro&amp;quot;; font-size: 30px;&quot;&gt;c4&lt;/span&gt;" style="ellipse;whiteSpace=wrap;html=1;aspect=fixed;fillColor=#dae8fc;strokeColor=#6c8ebf;strokeWidth=3;" parent="1" vertex="1">
          <mxGeometry x="760" y="300" width="80" height="80" as="geometry" />
        </mxCell>
        <mxCell id="Lku-9D8-o2nRtP-Uuvem-15" style="edgeStyle=orthogonalEdgeStyle;curved=1;orthogonalLoop=1;jettySize=auto;html=1;exitX=0.5;exitY=1;exitDx=0;exitDy=0;entryX=0.5;entryY=0;entryDx=0;entryDy=0;strokeColor=#999999;strokeWidth=5;fontFamily=Source Sans Pro;fontSource=https%3A%2F%2Ffonts.googleapis.com%2Fcss%3Ffamily%3DSource%2BSans%2BPro;fontSize=30;fontColor=#D6B656;endArrow=none;endFill=0;" parent="1" source="Lku-9D8-o2nRtP-Uuvem-14" target="Lku-9D8-o2nRtP-Uuvem-9" edge="1">
          <mxGeometry relative="1" as="geometry" />
        </mxCell>
        <mxCell id="Lku-9D8-o2nRtP-Uuvem-14" value="&lt;span style=&quot;color: rgb(128, 128, 128); font-family: &amp;quot;Source Sans Pro&amp;quot;; font-size: 30px;&quot;&gt;c5&lt;/span&gt;" style="ellipse;whiteSpace=wrap;html=1;aspect=fixed;fillColor=#dae8fc;strokeColor=#6c8ebf;strokeWidth=3;" parent="1" vertex="1">
          <mxGeometry x="880" y="170" width="80" height="80" as="geometry" />
        </mxCell>
        <mxCell id="hfC_rxP4AdhN9OaOA3we-1" style="edgeStyle=orthogonalEdgeStyle;orthogonalLoop=1;jettySize=auto;html=1;entryX=0;entryY=0.5;entryDx=0;entryDy=0;fontFamily=Source Sans Pro;fontSource=https%3A%2F%2Ffonts.googleapis.com%2Fcss%3Ffamily%3DSource%2BSans%2BPro;fontSize=30;fontColor=#EA6B66;curved=1;strokeWidth=5;fillColor=#f8cecc;strokeColor=#EA6B66;" parent="1" source="hfC_rxP4AdhN9OaOA3we-2" edge="1">
          <mxGeometry relative="1" as="geometry">
            <mxPoint x="760" y="630" as="targetPoint" />
          </mxGeometry>
        </mxCell>
        <mxCell id="hfC_rxP4AdhN9OaOA3we-2" value="tag:&amp;nbsp; &amp;nbsp; &amp;nbsp;&lt;font color=&quot;#ea6b66&quot;&gt;&lt;b&gt;v0.1.0&lt;/b&gt;&lt;/font&gt;" style="text;html=1;strokeColor=none;fillColor=none;align=center;verticalAlign=middle;whiteSpace=wrap;rounded=0;fontFamily=Source Sans Pro;fontSource=https%3A%2F%2Ffonts.googleapis.com%2Fcss%3Ffamily%3DSource%2BSans%2BPro;fontSize=30;strokeWidth=6;" parent="1" vertex="1">
          <mxGeometry x="440" y="615" width="160" height="30" as="geometry" />
        </mxCell>
      </root>
    </mxGraphModel>
  </diagram>
  <diagram id="tZ57owsE-kRNNLIgICR6" name="merge">
    <mxGraphModel dx="2074" dy="1195" grid="1" gridSize="10" guides="1" tooltips="1" connect="1" arrows="1" fold="1" page="1" pageScale="1" pageWidth="1600" pageHeight="900" math="0" shadow="0">
      <root>
        <mxCell id="0" />
        <mxCell id="1" parent="0" />
        <mxCell id="z9yKQC4iCA9kWWVMrcam-1" value="c0" style="ellipse;whiteSpace=wrap;html=1;aspect=fixed;fillColor=#dae8fc;strokeColor=#6c8ebf;strokeWidth=3;fontSize=30;fontFamily=Source Sans Pro;fontSource=https%3A%2F%2Ffonts.googleapis.com%2Fcss%3Ffamily%3DSource%2BSans%2BPro;fontColor=#808080;" parent="1" vertex="1">
          <mxGeometry x="760" y="810" width="80" height="80" as="geometry" />
        </mxCell>
        <mxCell id="z9yKQC4iCA9kWWVMrcam-2" style="edgeStyle=orthogonalEdgeStyle;curved=1;orthogonalLoop=1;jettySize=auto;html=1;exitX=0.5;exitY=1;exitDx=0;exitDy=0;entryX=0.5;entryY=0;entryDx=0;entryDy=0;strokeColor=#999999;strokeWidth=5;fontFamily=Source Sans Pro;fontSource=https%3A%2F%2Ffonts.googleapis.com%2Fcss%3Ffamily%3DSource%2BSans%2BPro;fontSize=50;endArrow=none;endFill=0;" parent="1" source="z9yKQC4iCA9kWWVMrcam-3" target="z9yKQC4iCA9kWWVMrcam-1" edge="1">
          <mxGeometry relative="1" as="geometry" />
        </mxCell>
        <mxCell id="z9yKQC4iCA9kWWVMrcam-3" value="&lt;span style=&quot;color: rgb(128, 128, 128); font-family: &amp;quot;Source Sans Pro&amp;quot;; font-size: 30px;&quot;&gt;c1&lt;/span&gt;" style="ellipse;whiteSpace=wrap;html=1;aspect=fixed;fillColor=#dae8fc;strokeColor=#6c8ebf;strokeWidth=3;fontSize=12;fontFamily=Helvetica;fontSource=https%3A%2F%2Ffonts.googleapis.com%2Fcss%3Ffamily%3DSource%2BSans%2BPro;" parent="1" vertex="1">
          <mxGeometry x="760" y="680" width="80" height="80" as="geometry" />
        </mxCell>
        <mxCell id="z9yKQC4iCA9kWWVMrcam-4" style="edgeStyle=orthogonalEdgeStyle;curved=1;orthogonalLoop=1;jettySize=auto;html=1;exitX=0.5;exitY=1;exitDx=0;exitDy=0;entryX=0.5;entryY=0;entryDx=0;entryDy=0;strokeColor=#999999;strokeWidth=5;fontFamily=Source Sans Pro;fontSource=https%3A%2F%2Ffonts.googleapis.com%2Fcss%3Ffamily%3DSource%2BSans%2BPro;fontSize=50;endArrow=none;endFill=0;" parent="1" source="z9yKQC4iCA9kWWVMrcam-5" target="z9yKQC4iCA9kWWVMrcam-3" edge="1">
          <mxGeometry relative="1" as="geometry" />
        </mxCell>
        <mxCell id="z9yKQC4iCA9kWWVMrcam-5" value="&lt;span style=&quot;color: rgb(128, 128, 128); font-family: &amp;quot;Source Sans Pro&amp;quot;; font-size: 30px;&quot;&gt;c2&lt;/span&gt;" style="ellipse;whiteSpace=wrap;html=1;aspect=fixed;fillColor=#dae8fc;strokeColor=#6c8ebf;strokeWidth=3;" parent="1" vertex="1">
          <mxGeometry x="760" y="550" width="80" height="80" as="geometry" />
        </mxCell>
        <mxCell id="z9yKQC4iCA9kWWVMrcam-6" style="edgeStyle=orthogonalEdgeStyle;curved=1;orthogonalLoop=1;jettySize=auto;html=1;entryX=0;entryY=0.5;entryDx=0;entryDy=0;strokeColor=#9673A6;strokeWidth=5;fontFamily=Source Sans Pro;fontSource=https%3A%2F%2Ffonts.googleapis.com%2Fcss%3Ffamily%3DSource%2BSans%2BPro;fontSize=30;fontColor=#9673A6;" parent="1" source="z9yKQC4iCA9kWWVMrcam-7" target="z9yKQC4iCA9kWWVMrcam-16" edge="1">
          <mxGeometry relative="1" as="geometry" />
        </mxCell>
        <mxCell id="z9yKQC4iCA9kWWVMrcam-7" value="&lt;font color=&quot;#000000&quot;&gt;branch:&lt;/font&gt; main" style="text;html=1;strokeColor=none;fillColor=none;align=center;verticalAlign=middle;whiteSpace=wrap;rounded=0;strokeWidth=6;fontFamily=Source Sans Pro;fontSource=https%3A%2F%2Ffonts.googleapis.com%2Fcss%3Ffamily%3DSource%2BSans%2BPro;fontSize=30;fontColor=#9673A6;fontStyle=1" parent="1" vertex="1">
          <mxGeometry x="410" y="225" width="190" height="30" as="geometry" />
        </mxCell>
        <mxCell id="z9yKQC4iCA9kWWVMrcam-8" style="edgeStyle=orthogonalEdgeStyle;curved=1;orthogonalLoop=1;jettySize=auto;html=1;exitX=0.5;exitY=1;exitDx=0;exitDy=0;entryX=0.5;entryY=0;entryDx=0;entryDy=0;strokeColor=#999999;strokeWidth=5;fontFamily=Source Sans Pro;fontSource=https%3A%2F%2Ffonts.googleapis.com%2Fcss%3Ffamily%3DSource%2BSans%2BPro;fontSize=30;fontColor=#000000;endArrow=none;endFill=0;" parent="1" source="z9yKQC4iCA9kWWVMrcam-9" target="z9yKQC4iCA9kWWVMrcam-5" edge="1">
          <mxGeometry relative="1" as="geometry" />
        </mxCell>
        <mxCell id="z9yKQC4iCA9kWWVMrcam-9" value="&lt;span style=&quot;color: rgb(128, 128, 128); font-family: &amp;quot;Source Sans Pro&amp;quot;; font-size: 30px;&quot;&gt;c3&lt;/span&gt;" style="ellipse;whiteSpace=wrap;html=1;aspect=fixed;fillColor=#dae8fc;strokeColor=#6c8ebf;strokeWidth=3;" parent="1" vertex="1">
          <mxGeometry x="880" y="430" width="80" height="80" as="geometry" />
        </mxCell>
        <mxCell id="z9yKQC4iCA9kWWVMrcam-11" value="&lt;font color=&quot;#000000&quot;&gt;branch:&lt;/font&gt;&amp;nbsp;&lt;font color=&quot;#d6b656&quot;&gt;my-branch&lt;/font&gt;" style="text;html=1;strokeColor=none;fillColor=none;align=center;verticalAlign=middle;whiteSpace=wrap;rounded=0;strokeWidth=6;fontFamily=Source Sans Pro;fontSource=https%3A%2F%2Ffonts.googleapis.com%2Fcss%3Ffamily%3DSource%2BSans%2BPro;fontSize=30;fontColor=#9673A6;fontStyle=1" parent="1" vertex="1">
          <mxGeometry x="1060" y="225" width="270" height="30" as="geometry" />
        </mxCell>
        <mxCell id="z9yKQC4iCA9kWWVMrcam-12" style="edgeStyle=orthogonalEdgeStyle;curved=1;orthogonalLoop=1;jettySize=auto;html=1;exitX=0.5;exitY=1;exitDx=0;exitDy=0;strokeColor=#999999;strokeWidth=5;fontFamily=Source Sans Pro;fontSource=https%3A%2F%2Ffonts.googleapis.com%2Fcss%3Ffamily%3DSource%2BSans%2BPro;fontSize=30;fontColor=#D6B656;endArrow=none;endFill=0;" parent="1" source="z9yKQC4iCA9kWWVMrcam-13" target="z9yKQC4iCA9kWWVMrcam-5" edge="1">
          <mxGeometry relative="1" as="geometry" />
        </mxCell>
        <mxCell id="z9yKQC4iCA9kWWVMrcam-13" value="&lt;span style=&quot;color: rgb(128, 128, 128); font-family: &amp;quot;Source Sans Pro&amp;quot;; font-size: 30px;&quot;&gt;c4&lt;/span&gt;" style="ellipse;whiteSpace=wrap;html=1;aspect=fixed;fillColor=#dae8fc;strokeColor=#6c8ebf;strokeWidth=3;" parent="1" vertex="1">
          <mxGeometry x="760" y="410" width="80" height="80" as="geometry" />
        </mxCell>
        <mxCell id="z9yKQC4iCA9kWWVMrcam-14" style="edgeStyle=orthogonalEdgeStyle;curved=1;orthogonalLoop=1;jettySize=auto;html=1;exitX=0.5;exitY=1;exitDx=0;exitDy=0;entryX=0.5;entryY=0;entryDx=0;entryDy=0;strokeColor=#999999;strokeWidth=5;fontFamily=Source Sans Pro;fontSource=https%3A%2F%2Ffonts.googleapis.com%2Fcss%3Ffamily%3DSource%2BSans%2BPro;fontSize=30;fontColor=#D6B656;endArrow=none;endFill=0;" parent="1" source="z9yKQC4iCA9kWWVMrcam-15" target="z9yKQC4iCA9kWWVMrcam-9" edge="1">
          <mxGeometry relative="1" as="geometry" />
        </mxCell>
        <mxCell id="z9yKQC4iCA9kWWVMrcam-15" value="&lt;span style=&quot;color: rgb(128, 128, 128); font-family: &amp;quot;Source Sans Pro&amp;quot;; font-size: 30px;&quot;&gt;c5&lt;/span&gt;" style="ellipse;whiteSpace=wrap;html=1;aspect=fixed;fillColor=#dae8fc;strokeColor=#6c8ebf;strokeWidth=3;" parent="1" vertex="1">
          <mxGeometry x="880" y="310" width="80" height="80" as="geometry" />
        </mxCell>
        <mxCell id="z9yKQC4iCA9kWWVMrcam-17" style="edgeStyle=orthogonalEdgeStyle;curved=1;orthogonalLoop=1;jettySize=auto;html=1;exitX=0.5;exitY=1;exitDx=0;exitDy=0;entryX=0.5;entryY=0;entryDx=0;entryDy=0;strokeColor=#999999;strokeWidth=5;fontFamily=Source Sans Pro;fontSource=https%3A%2F%2Ffonts.googleapis.com%2Fcss%3Ffamily%3DSource%2BSans%2BPro;fontSize=30;fontColor=#D6B656;endArrow=none;endFill=0;" parent="1" source="z9yKQC4iCA9kWWVMrcam-16" target="z9yKQC4iCA9kWWVMrcam-13" edge="1">
          <mxGeometry relative="1" as="geometry" />
        </mxCell>
        <mxCell id="z9yKQC4iCA9kWWVMrcam-19" style="edgeStyle=orthogonalEdgeStyle;curved=1;orthogonalLoop=1;jettySize=auto;html=1;exitX=1;exitY=0.5;exitDx=0;exitDy=0;strokeColor=#999999;strokeWidth=5;fontFamily=Source Sans Pro;fontSource=https%3A%2F%2Ffonts.googleapis.com%2Fcss%3Ffamily%3DSource%2BSans%2BPro;fontSize=30;fontColor=#D6B656;endArrow=none;endFill=0;" parent="1" source="z9yKQC4iCA9kWWVMrcam-16" edge="1">
          <mxGeometry relative="1" as="geometry">
            <mxPoint x="920" y="310" as="targetPoint" />
          </mxGeometry>
        </mxCell>
        <mxCell id="z9yKQC4iCA9kWWVMrcam-16" value="&lt;span style=&quot;color: rgb(128, 128, 128); font-family: &amp;quot;Source Sans Pro&amp;quot;; font-size: 30px;&quot;&gt;c6&lt;/span&gt;" style="ellipse;whiteSpace=wrap;html=1;aspect=fixed;fillColor=#dae8fc;strokeColor=#6c8ebf;strokeWidth=3;" parent="1" vertex="1">
          <mxGeometry x="760" y="200" width="80" height="80" as="geometry" />
        </mxCell>
        <mxCell id="z9yKQC4iCA9kWWVMrcam-10" style="edgeStyle=orthogonalEdgeStyle;curved=1;orthogonalLoop=1;jettySize=auto;html=1;exitX=0;exitY=0.5;exitDx=0;exitDy=0;entryX=1;entryY=0.5;entryDx=0;entryDy=0;strokeColor=#D6B656;strokeWidth=5;fontFamily=Source Sans Pro;fontSource=https%3A%2F%2Ffonts.googleapis.com%2Fcss%3Ffamily%3DSource%2BSans%2BPro;fontSize=30;fontColor=#000000;fillColor=#fff2cc;" parent="1" source="z9yKQC4iCA9kWWVMrcam-11" target="z9yKQC4iCA9kWWVMrcam-16" edge="1">
          <mxGeometry relative="1" as="geometry" />
        </mxCell>
      </root>
    </mxGraphModel>
  </diagram>
</mxfile>
